<?xml version="1.0" encoding="UTF-8"?> <svg xmlns="http://www.w3.org/2000/svg" xmlns:xlink="http://www.w3.org/1999/xlink" version="1.1" id="Vrstva_1" x="0px" y="0px" viewBox="0 0 992.1 992.1" style="enable-background:new 0 0 992.1 992.1;" xml:space="preserve"> <style type="text/css"> .st0{fill:#ED1C24;} .st1{fill:#00A3DE;} </style> <g> <path d="M197.2,231l59.4-19.3c14.3-4.6,26.1-4.4,31.5,12.2c4.4,13.6-0.1,22.5-17.1,28l-60.7,19.7L197.2,231z M164.3,420.7 l85.5-27.8l-21.7-66.7l60.7-19.7c15.8-5.1,24.4,2.8,30.5,18.6c9.7,24.7,12.4,34.2,17.9,39.5l93.4-30.4c-8-5.1-14.8-12.6-18.9-22 l-19-46.1c-7.7-18.6-21.2-26-35.4-25.4l-0.2-0.6c22.8-15.5,24-39.7,17.3-60.3c-7.8-24-27.7-39.9-46.5-42.9 c-13.7-1.9-29.3,0.8-53.8,8.8L93.9,204.2L164.3,420.7z"></path> <path d="M500.3,191.8c-14.3-44,1.9-68.4,37.1-79.8c35.2-11.4,62.6-1.2,76.9,42.7c14.3,44-1.9,68.4-37.1,79.8 C542.1,246,514.6,235.8,500.3,191.8 M409.3,221.4C445.9,333.9,543.1,306,595,289.2c51.9-16.9,146.8-51.7,110.4-164 C668.9,13,571.6,40.6,519.7,57.4C467.9,74.3,372.9,109.2,409.3,221.4"></path> <polygon class="st0" points="209,709 294.5,681.2 241.9,519.2 321.1,493.5 303.3,438.9 59.5,518.2 77.2,572.8 156.4,547 "></polygon> <polygon class="st0" points="575.1,590.1 660.6,562.3 590.2,345.7 504.7,373.5 529.2,449 433.1,480.3 408.6,404.7 323,432.5 393.4,649.1 478.9,621.3 450.8,534.9 547,503.6 "></polygon> <polygon class="st0" points="702.5,548.7 932.7,473.9 915.5,421.1 770.8,468.1 761.4,439 895.7,395.3 878.6,342.6 744.2,386.2 734.8,357.1 879.5,310.1 862.3,257.3 632.1,332.1 "></polygon> <path class="st1" d="M488.3,827.8c1.6,28.7-10.9,44.8-37.9,53.6c-31.5,10.2-58.4-0.1-72.7-44.1c-14.3-44,1.9-68.4,37.1-79.8 c33.1-10.7,50.7,8.3,58.1,23l96.4-31.3c-38.9-82.6-121-62.9-172.3-46.3c-51.9,16.9-146.8,51.7-110.4,164 c36.6,112.5,133.8,84.6,185.7,67.8c52.2-17,82.1-36.4,97.9-59c16.4-22.8,18.1-48.5,14.5-79.2L488.3,827.8z"></path> <path class="st1" d="M686.8,736.8c-14.3-44,1.9-68.4,37.1-79.8c35.2-11.4,62.6-1.2,76.9,42.7c14.3,44-1.9,68.4-37.1,79.8 C728.6,791,701.1,780.8,686.8,736.8 M595.8,766.4c36.6,112.5,133.8,84.6,185.7,67.8c51.9-16.9,146.8-51.7,110.4-164 c-36.5-112.2-133.8-84.6-185.7-67.8C654.3,619.3,559.4,654.2,595.8,766.4"></path> </g> </svg> 