<?xml version="1.0" standalone="no"?>
<svg preserveAspectRatio="none"  xmlns:xlink="http://www.w3.org/1999/xlink" id="wave" style="transform:rotate(180deg); transition: 0.3s" viewBox="0 0 1440 280" version="1.1" xmlns="http://www.w3.org/2000/svg"><defs><linearGradient id="sw-gradient-0" x1="0" x2="0" y1="1" y2="0"><stop stop-color="rgba(237, 28, 36, 1)" offset="0%"/><stop stop-color="rgba(237, 28, 36, 1)" offset="100%"/></linearGradient></defs><path style="transform:translate(0, 0px); opacity:1" fill="url(#sw-gradient-0)" d="M0,112L34.3,135.3C68.6,159,137,205,206,219.3C274.3,233,343,215,411,210C480,205,549,215,617,196C685.7,177,754,131,823,98C891.4,65,960,47,1029,56C1097.1,65,1166,103,1234,121.3C1302.9,140,1371,140,1440,121.3C1508.6,103,1577,65,1646,60.7C1714.3,56,1783,84,1851,79.3C1920,75,1989,37,2057,56C2125.7,75,2194,149,2263,191.3C2331.4,233,2400,243,2469,233.3C2537.1,224,2606,196,2674,191.3C2742.9,187,2811,205,2880,205.3C2948.6,205,3017,187,3086,172.7C3154.3,159,3223,149,3291,158.7C3360,168,3429,196,3497,205.3C3565.7,215,3634,205,3703,172.7C3771.4,140,3840,84,3909,88.7C3977.1,93,4046,159,4114,172.7C4182.9,187,4251,149,4320,112C4388.6,75,4457,37,4526,51.3C4594.3,65,4663,131,4731,172.7C4800,215,4869,233,4903,242.7L4937.1,252L4937.1,280L4902.9,280C4868.6,280,4800,280,4731,280C4662.9,280,4594,280,4526,280C4457.1,280,4389,280,4320,280C4251.4,280,4183,280,4114,280C4045.7,280,3977,280,3909,280C3840,280,3771,280,3703,280C3634.3,280,3566,280,3497,280C3428.6,280,3360,280,3291,280C3222.9,280,3154,280,3086,280C3017.1,280,2949,280,2880,280C2811.4,280,2743,280,2674,280C2605.7,280,2537,280,2469,280C2400,280,2331,280,2263,280C2194.3,280,2126,280,2057,280C1988.6,280,1920,280,1851,280C1782.9,280,1714,280,1646,280C1577.1,280,1509,280,1440,280C1371.4,280,1303,280,1234,280C1165.7,280,1097,280,1029,280C960,280,891,280,823,280C754.3,280,686,280,617,280C548.6,280,480,280,411,280C342.9,280,274,280,206,280C137.1,280,69,280,34,280L0,280Z"/><defs><linearGradient id="sw-gradient-1" x1="0" x2="0" y1="1" y2="0"><stop stop-color="rgba(0, 163, 222, 1)" offset="0%"/><stop stop-color="rgba(0, 163, 222, 1)" offset="100%"/></linearGradient></defs><path style="transform:translate(0, 50px); opacity:0.9" fill="url(#sw-gradient-1)" d="M0,224L34.3,214.7C68.6,205,137,187,206,154C274.3,121,343,75,411,88.7C480,103,549,177,617,214.7C685.7,252,754,252,823,214.7C891.4,177,960,103,1029,60.7C1097.1,19,1166,9,1234,23.3C1302.9,37,1371,75,1440,98C1508.6,121,1577,131,1646,121.3C1714.3,112,1783,84,1851,60.7C1920,37,1989,19,2057,32.7C2125.7,47,2194,93,2263,130.7C2331.4,168,2400,196,2469,214.7C2537.1,233,2606,243,2674,219.3C2742.9,196,2811,140,2880,130.7C2948.6,121,3017,159,3086,158.7C3154.3,159,3223,121,3291,121.3C3360,121,3429,159,3497,172.7C3565.7,187,3634,177,3703,158.7C3771.4,140,3840,112,3909,116.7C3977.1,121,4046,159,4114,186.7C4182.9,215,4251,233,4320,242.7C4388.6,252,4457,252,4526,233.3C4594.3,215,4663,177,4731,168C4800,159,4869,177,4903,186.7L4937.1,196L4937.1,280L4902.9,280C4868.6,280,4800,280,4731,280C4662.9,280,4594,280,4526,280C4457.1,280,4389,280,4320,280C4251.4,280,4183,280,4114,280C4045.7,280,3977,280,3909,280C3840,280,3771,280,3703,280C3634.3,280,3566,280,3497,280C3428.6,280,3360,280,3291,280C3222.9,280,3154,280,3086,280C3017.1,280,2949,280,2880,280C2811.4,280,2743,280,2674,280C2605.7,280,2537,280,2469,280C2400,280,2331,280,2263,280C2194.3,280,2126,280,2057,280C1988.6,280,1920,280,1851,280C1782.9,280,1714,280,1646,280C1577.1,280,1509,280,1440,280C1371.4,280,1303,280,1234,280C1165.7,280,1097,280,1029,280C960,280,891,280,823,280C754.3,280,686,280,617,280C548.6,280,480,280,411,280C342.9,280,274,280,206,280C137.1,280,69,280,34,280L0,280Z"/><defs><linearGradient id="sw-gradient-2" x1="0" x2="0" y1="1" y2="0"><stop stop-color="rgba(0, 0, 0, 1)" offset="0%"/><stop stop-color="rgba(0, 0, 0, 1)" offset="100%"/></linearGradient></defs><path style="transform:translate(0, 100px); opacity:0.8" fill="url(#sw-gradient-2)" d="M0,56L34.3,84C68.6,112,137,168,206,163.3C274.3,159,343,93,411,70C480,47,549,65,617,65.3C685.7,65,754,47,823,74.7C891.4,103,960,177,1029,172.7C1097.1,168,1166,84,1234,60.7C1302.9,37,1371,75,1440,74.7C1508.6,75,1577,37,1646,46.7C1714.3,56,1783,112,1851,116.7C1920,121,1989,75,2057,70C2125.7,65,2194,103,2263,126C2331.4,149,2400,159,2469,177.3C2537.1,196,2606,224,2674,233.3C2742.9,243,2811,233,2880,214.7C2948.6,196,3017,168,3086,144.7C3154.3,121,3223,103,3291,102.7C3360,103,3429,121,3497,116.7C3565.7,112,3634,84,3703,93.3C3771.4,103,3840,149,3909,163.3C3977.1,177,4046,159,4114,126C4182.9,93,4251,47,4320,37.3C4388.6,28,4457,56,4526,88.7C4594.3,121,4663,159,4731,172.7C4800,187,4869,177,4903,172.7L4937.1,168L4937.1,280L4902.9,280C4868.6,280,4800,280,4731,280C4662.9,280,4594,280,4526,280C4457.1,280,4389,280,4320,280C4251.4,280,4183,280,4114,280C4045.7,280,3977,280,3909,280C3840,280,3771,280,3703,280C3634.3,280,3566,280,3497,280C3428.6,280,3360,280,3291,280C3222.9,280,3154,280,3086,280C3017.1,280,2949,280,2880,280C2811.4,280,2743,280,2674,280C2605.7,280,2537,280,2469,280C2400,280,2331,280,2263,280C2194.3,280,2126,280,2057,280C1988.6,280,1920,280,1851,280C1782.9,280,1714,280,1646,280C1577.1,280,1509,280,1440,280C1371.4,280,1303,280,1234,280C1165.7,280,1097,280,1029,280C960,280,891,280,823,280C754.3,280,686,280,617,280C548.6,280,480,280,411,280C342.9,280,274,280,206,280C137.1,280,69,280,34,280L0,280Z"/></svg>